. 
  
http://www.torrentday.com/        :     The Hottest Private Tracker On The Net!!!


               www . TorrentDay . Com 
(((((((((((((= Enjoy No RAR releases =))))))))))))))))))))


...................................NFO:....................................

.*******************************************************************************
                    The.Take.2007.DVDRip.AC3.X264-BARC0DE
*******************************************************************************

-------------------------------------------------------------------------------
                              General Information
-------------------------------------------------------------------------------
Type.................: Movie
Name.................: The Take
Movie Information....: http://www.imdb.com/title/tt0828158/
Genre................: Crime | Drama
-------------------------------------------------------------------------------
                                    PLOT
-------------------------------------------------------------------------------

After he's shot during a heist in East L.A., an armored-truck driver (Leguizamo) 
wrestles with rehabilitation and tracking down the man (Gibson) who committed the crime.

-------------------------------------------------------------------------------
                                    CAST
-------------------------------------------------------------------------------
John Leguizamo	... 	Felix De La Pena
Tyrese Gibson	... 	Adell Baldwin
Rosie Perez	... 	Marina De La Pena
Bobby Cannavale	... 	Agent Steve Perelli
Matthew Hatchette	... 	Agent Forest Baxter
Yul Vazquez	... 	Marco Ruiz
Carlos Sanz	... 	Det. Victor Martinez
Jake Muxworthy	... 	Jimmy Grannis
Laurence Mason	... 	Curtis Fellows
Roger Guenveur Smith	... 	Dr. Phineas
Jessica Steinbaum	... 	Rosey De La Pena
David Castro	... 	Bartender
Taylor Gray	... 	Javy De La Pena

-------------------------------------------------------------------------------
                                    MEDiA iNFO
-------------------------------------------------------------------------------

General
Complete name                    : The.Take.2007.DVDRip.AC3.X264-BARC0DE.mkv
Format                           : Matroska
File size                        : 1.44 GiB
Duration                         : 1h 35mn
Overall bit rate                 : 2 161 Kbps

Video
ID                               : 1
Format                           : AVC
Format/Info                      : Advanced Video Codec
Format profile                   : High@L3.0
Format settings, CABAC           : Yes
Format settings, ReFrames        : 3 frames
Muxing mode                      : Container profile=Unknown@3.0
Codec ID                         : V_MPEG4/ISO/AVC
Duration                         : 1h 35mn
Bit rate                         : 1 737 Kbps
Width                            : 720 pixels
Height                           : 384 pixels
Display aspect ratio             : 1.875
Frame rate                       : 25.000 fps
Color space                      : YUV
Chroma subsampling               : 4:2:0
Bit depth                        : 8 bits
Scan type                        : Progressive
Bits/(Pixel*Frame)               : 0.251
Stream size                      : 1.11 GiB (77%)
Writing library                  : x264 core 79


Audio
ID                               : 2
Format                           : AC-3
Format/Info                      : Audio Coding 3
Mode extension                   : CM (complete main)
Codec ID                         : A_AC3
Duration                         : 1h 35mn
Bit rate mode                    : Constant
Bit rate                         : 448 Kbps
Channel(s)                       : 6 channels
Channel positions                : Front: L C R, Side: L R, LFE
Sampling rate                    : 48.0 KHz
Stream size                      : 305 MiB (21%)
Language                         : English

Text
ID                               : 3
Format                           : VobSub
Codec ID                         : S_VOBSUB
Codec ID/Info                    : The same subtitle format used on DVDs
Language                         : English

Menu
00:00:00.000                     : Chapter 1
00:08:00.760                     : Chapter 2
00:18:39.080                     : Chapter 3
00:26:20.040                     : Chapter 4
00:34:56.560                     : Chapter 5
00:43:04.440                     : Chapter 6
00:52:09.560                     : Chapter 7
01:00:09.955                     : Chapter 8
01:08:39.795                     : Chapter 9
01:16:54.595                     : Chapter 10
01:26:06.155                     : Chapter 11
01:31:09.475                     : Chapter 12